<?xml version="1.0" standalone="no"?>
<!DOCTYPE svg PUBLIC "-//W3C//DTD SVG 20010904//EN"
 "http://www.w3.org/TR/2001/REC-SVG-20010904/DTD/svg10.dtd">
<svg version="1.0" xmlns="http://www.w3.org/2000/svg"
 width="400.000000pt" height="248.000000pt" viewBox="0 0 400.000000 248.000000"
 preserveAspectRatio="xMidYMid meet">

<g transform="translate(0.000000,248.000000) scale(0.100000,-0.100000)"
fill="#000000" stroke="none">
<path d="M2175 2415 c-38 -13 -225 -71 -415 -129 -502 -154 -702 -226 -747
-268 -30 -28 -30 -72 -1 -92 35 -25 67 -20 85 12 18 32 14 30 232 108 84 30
156 52 159 49 3 -3 -8 -67 -25 -143 -17 -75 -43 -189 -57 -252 -50 -230 -138
-617 -156 -690 -10 -41 -21 -87 -24 -102 -4 -16 -17 -32 -33 -40 -31 -15 -40
-42 -42 -123 -1 -62 19 -95 58 -95 34 0 46 12 66 71 21 58 112 438 220 924 48
215 93 413 99 440 13 56 8 53 201 110 105 31 333 100 415 126 59 19 100 47
100 70 0 14 -38 49 -52 48 -7 0 -44 -11 -83 -24z"/>
<path d="M2445 2269 c-44 -23 -132 -172 -314 -537 l-101 -203 -151 2 c-162 1
-171 5 -108 47 30 21 41 23 99 17 92 -9 101 -8 119 9 11 12 13 22 5 43 -7 22
-19 31 -59 41 -107 28 -212 -2 -279 -79 -57 -67 -78 -135 -84 -271 -4 -99 -1
-127 17 -185 38 -128 113 -197 185 -173 59 19 122 103 241 318 38 67 72 125
76 128 16 9 177 -9 173 -20 -2 -6 -13 -54 -25 -106 -95 -443 -108 -529 -85
-584 19 -46 55 -49 97 -7 32 32 38 71 14 91 -8 7 -15 27 -15 45 0 41 75 404
111 537 l10 40 95 -7 c103 -8 124 -1 124 41 0 33 -34 51 -115 58 -38 4 -71 9
-74 12 -3 2 12 75 33 162 21 86 49 204 63 262 13 58 27 148 30 201 5 92 5 97
-18 113 -27 18 -36 19 -64 5z m-85 -461 c-28 -117 -55 -230 -61 -250 l-10 -38
-68 0 c-37 0 -70 3 -74 6 -3 4 33 83 80 178 116 233 176 342 180 329 3 -7 -19
-108 -47 -225z m-642 -348 c15 -18 33 -21 135 -27 64 -3 117 -9 117 -12 0 -9
-99 -181 -152 -263 -70 -109 -99 -106 -135 16 -19 63 -22 217 -4 269 15 43 17
44 39 17z"/>
<path d="M3225 2273 c-107 -15 -266 -78 -362 -144 -106 -73 -195 -178 -223
-263 -14 -45 -9 -147 11 -189 14 -30 53 -46 78 -30 17 11 17 25 5 124 -7 63
11 110 68 174 51 59 201 166 213 153 1 -2 -15 -75 -36 -163 -22 -88 -49 -203
-62 -255 l-23 -95 -50 -5 c-93 -10 -133 -59 -101 -126 10 -20 32 -41 57 -54
22 -11 40 -22 40 -25 0 -5 -55 -245 -89 -390 -11 -44 -25 -119 -32 -167 -11
-78 -10 -90 5 -112 32 -49 87 -24 119 54 15 35 10 71 -11 84 -10 6 1 60 69
351 22 93 45 173 52 177 7 4 28 8 47 8 42 0 59 -17 188 -194 106 -146 186
-234 229 -252 74 -32 165 0 202 69 13 24 12 29 -4 47 -24 27 -51 25 -87 -5
-16 -14 -38 -25 -49 -25 -30 0 -104 75 -174 175 -35 49 -86 119 -115 155 -46
58 -50 66 -35 75 153 89 253 183 326 305 199 335 79 589 -256 543z m183 -113
c130 -59 79 -300 -107 -501 -65 -71 -172 -144 -228 -155 -35 -7 -83 18 -83 44
0 8 24 115 54 236 74 303 73 292 47 320 l-22 24 43 16 c103 39 230 46 296 16z"/>
<path d="M760 2217 c-230 -69 -525 -290 -601 -450 -66 -140 -23 -214 165 -293
218 -90 318 -139 346 -169 l20 -21 -117 -100 c-295 -251 -400 -404 -334 -485
45 -56 194 -14 328 92 67 54 153 155 190 224 31 59 63 163 63 207 0 36 4 41
87 100 157 114 183 137 183 161 0 29 -18 47 -45 47 -12 0 -67 -33 -123 -74
-163 -121 -144 -114 -194 -73 -52 42 -167 100 -331 168 -131 54 -167 79 -167
116 0 148 472 489 652 471 28 -3 33 -7 36 -33 5 -40 19 -55 53 -55 36 0 53 30
46 82 -6 46 -29 75 -74 94 -45 19 -96 17 -183 -9z m-59 -1085 c-34 -116 -184
-278 -315 -338 -32 -14 -60 -23 -63 -20 -9 9 41 76 115 152 76 79 250 234 262
234 5 0 5 -13 1 -28z"/>
<path d="M1135 431 c-55 -25 -122 -100 -131 -146 -19 -101 91 -215 208 -215
89 0 150 35 188 110 41 81 34 143 -23 197 -75 72 -162 91 -242 54z m150 -32
c21 -6 54 -26 72 -44 29 -29 33 -40 33 -84 0 -64 -19 -103 -64 -130 -81 -50
-202 -30 -246 41 -25 42 -25 81 1 135 42 86 102 110 204 82z"/>
<path d="M1137 363 c-30 -32 -57 -92 -56 -125 0 -15 6 -6 14 22 22 69 63 112
116 120 l44 7 -46 2 c-37 1 -50 -4 -72 -26z"/>
<path d="M2392 425 c-70 -36 -104 -82 -110 -148 -5 -66 27 -130 85 -171 57
-40 150 -47 217 -17 48 21 48 21 53 1 12 -46 35 -12 47 71 10 69 0 96 -41 109
-38 13 -83 6 -83 -13 0 -7 15 -17 32 -22 39 -12 45 -32 23 -79 -46 -97 -217
-72 -270 39 -20 44 -15 88 18 135 31 46 81 70 145 70 47 0 57 -4 96 -40 49
-45 69 -39 39 12 -23 40 -83 71 -147 75 -41 4 -62 -1 -104 -22z"/>
<path d="M2865 440 c-39 -12 -111 -73 -130 -111 -42 -79 3 -186 97 -233 81
-40 182 -31 242 22 30 27 66 113 66 158 0 110 -154 201 -275 164z m162 -55
c65 -33 88 -76 78 -143 -22 -149 -250 -178 -321 -40 -25 48 -2 118 56 177 27
27 39 31 84 31 36 0 68 -8 103 -25z"/>
<path d="M2862 374 c-36 -25 -87 -144 -62 -144 5 0 10 10 10 23 0 33 57 116
83 122 12 2 36 6 52 8 21 3 16 4 -15 6 -27 0 -55 -5 -68 -15z"/>
<path d="M1844 429 c-11 -18 12 -31 63 -36 97 -9 89 3 96 -140 7 -139 16 -194
32 -193 6 0 10 60 10 158 l0 157 57 5 c108 10 90 35 -37 50 -117 13 -212 13
-221 -1z"/>
<path d="M727 415 c-77 -27 -117 -88 -117 -180 0 -57 23 -102 72 -138 33 -25
122 -34 171 -18 43 14 107 82 107 113 0 20 -4 18 -31 -15 -40 -49 -77 -67
-134 -67 -93 0 -145 47 -145 130 0 47 17 85 55 120 23 22 36 25 95 25 76 0
114 -19 138 -68 17 -34 32 -35 32 -1 0 40 -58 90 -120 103 -64 14 -76 13 -123
-4z"/>
<path d="M2227 413 c-11 -17 -28 -209 -25 -273 2 -50 7 -65 18 -65 12 0 16 29
24 163 5 106 5 167 -2 174 -5 5 -12 6 -15 1z"/>
<path d="M1773 398 c-4 -7 -8 -68 -8 -135 0 -67 -3 -124 -6 -128 -6 -6 -94 88
-188 203 -28 34 -58 62 -66 62 -14 0 -15 -3 -34 -182 -16 -142 -15 -170 7
-166 14 3 18 19 23 108 4 58 7 122 8 143 1 24 5 37 12 35 6 -2 64 -69 128
-148 64 -79 122 -145 128 -147 28 -10 35 38 28 203 -7 155 -13 181 -32 152z"/>
<path d="M2191 397 c-1 -21 -39 -37 -91 -37 -35 0 -38 -2 -32 -22 5 -19 7 -20
10 -5 3 13 14 17 52 17 51 0 75 16 67 47 -4 17 -5 17 -6 0z"/>
<path d="M1824 227 c1 -176 1 -179 -23 -198 -17 -14 -19 -19 -8 -19 9 0 23 10
31 22 17 24 20 167 6 303 -5 49 -6 17 -6 -108z"/>
<path d="M2272 370 c0 -19 2 -27 5 -17 2 9 2 25 0 35 -3 9 -5 1 -5 -18z"/>
<path d="M2434 370 c-50 -20 -101 -117 -75 -143 8 -8 11 -2 11 22 0 36 30 85
63 103 12 7 40 15 62 19 l40 6 -40 1 c-22 0 -49 -3 -61 -8z"/>
<path d="M731 357 c-32 -16 -61 -73 -60 -117 0 -34 1 -33 13 13 8 27 25 61 40
75 23 23 35 27 87 27 34 -1 52 2 42 6 -29 12 -96 10 -122 -4z"/>
<path d="M1955 360 c3 -5 10 -10 16 -10 5 0 9 5 9 10 0 6 -7 10 -16 10 -8 0
-12 -4 -9 -10z"/>
<path d="M2664 313 c-16 -16 -19 -23 -9 -27 16 -6 38 18 33 36 -2 9 -10 6 -24
-9z"/>
<path d="M1445 303 c14 -74 -47 -193 -118 -230 -18 -9 -61 -20 -97 -23 l-65
-7 66 -2 c84 -1 140 26 185 92 36 52 55 151 34 184 -9 15 -10 12 -5 -14z"/>
<path d="M2072 185 c-2 -132 -5 -148 -32 -158 -10 -3 -7 -6 8 -6 12 -1 25 5
28 12 2 7 3 74 1 148 l-3 134 -2 -130z"/>
<path d="M1532 273 c-1 -17 -5 -40 -8 -50 -5 -17 -5 -17 6 0 6 9 9 32 7 50
l-4 32 -1 -32z"/>
<path d="M3158 251 c-10 -71 -57 -145 -112 -173 -22 -12 -68 -24 -101 -28
l-60 -7 61 -2 c35 0 77 5 97 14 73 30 133 134 125 216 -3 29 -4 27 -10 -20z"/>
<path d="M960 260 c0 -5 5 -10 10 -10 6 0 10 5 10 10 0 6 -4 10 -10 10 -5 0
-10 -4 -10 -10z"/>
<path d="M2580 216 c0 -2 7 -7 16 -10 8 -3 12 -2 9 4 -6 10 -25 14 -25 6z"/>
<path d="M980 188 c0 -32 -49 -92 -94 -115 -17 -9 -60 -20 -96 -23 l-65 -7 63
-2 c37 0 78 5 100 15 72 29 125 103 103 141 -9 16 -10 15 -11 -9z"/>
<path d="M1522 133 c-2 -58 -6 -77 -22 -93 -15 -15 -16 -20 -5 -20 25 0 36 38
32 113 l-3 72 -2 -72z"/>
<path d="M2260 136 c0 -56 -3 -67 -22 -80 l-22 -16 22 0 c15 0 26 9 32 26 13
33 13 121 0 129 -6 4 -10 -18 -10 -59z"/>
<path d="M2705 168 c-2 -7 -6 -31 -10 -53 -4 -22 -14 -48 -22 -57 -14 -16 -14
-18 -1 -18 19 0 34 34 43 94 7 42 0 64 -10 34z"/>
<path d="M2575 65 c-16 -8 -55 -15 -85 -16 l-55 -1 40 -8 c53 -11 145 9 145
31 0 12 -8 10 -45 -6z"/>
</g>
</svg>
